<?xml version="1.0" encoding="UTF-8" standalone="no"?>
<!-- Created with Inkscape (http://www.inkscape.org/) -->

<svg
   width="16mm"
   height="16mm"
   viewBox="0 0 16 16"
   version="1.1"
   id="svg4420"
   inkscape:version="1.1.1 (3bf5ae0d25, 2021-09-20)"
   sodipodi:docname="email.svg"
   xmlns:inkscape="http://www.inkscape.org/namespaces/inkscape"
   xmlns:sodipodi="http://sodipodi.sourceforge.net/DTD/sodipodi-0.dtd"
   xmlns="http://www.w3.org/2000/svg"
   xmlns:svg="http://www.w3.org/2000/svg">
  <sodipodi:namedview
     id="namedview4422"
     pagecolor="#ffffff"
     bordercolor="#666666"
     borderopacity="1.0"
     inkscape:pageshadow="2"
     inkscape:pageopacity="0.0"
     inkscape:pagecheckerboard="0"
     inkscape:document-units="mm"
     showgrid="false"
     width="50mm"
     inkscape:zoom="2.1795515"
     inkscape:cx="75.703648"
     inkscape:cy="3.2116699"
     inkscape:window-width="1916"
     inkscape:window-height="1023"
     inkscape:window-x="0"
     inkscape:window-y="0"
     inkscape:window-maximized="1"
     inkscape:current-layer="layer1" />
  <defs
     id="defs4417" />
  <g
     inkscape:label="Capa 1"
     inkscape:groupmode="layer"
     id="layer1">
    <g
       id="g13517"
       transform="translate(-0.29684499,-1.3154121)">
      <path
         class="fil0"
         d="m 4.261801,12.02045 c 3.74e-4,4.5e-4 8.53e-4,8e-4 0.0013,8e-4 l 0.402622,-4e-5 c 0.6222,-0.62221 1.244489,-1.24454 1.866734,-1.86679 0.134647,-0.13463 0.352971,-0.13463 0.48762,0 0.134625,0.13465 0.134625,0.35297 0,0.48763 l -1.379161,1.37916 c -1.099427,0 4.263748,4e-5 5.516557,4e-5 L 9.780141,10.64387 c -0.136769,-0.13345 -0.136518,-0.35468 -0.0016,-0.48941 0.134645,-0.13462 0.352971,-0.13462 0.487619,0 l 1.866712,1.86679 h 0.402557 c 4.53e-4,-3.9e-4 8.03e-4,-8e-4 8.03e-4,-8e-4 V 7.76706 L 13.22581,7.07749 v 4.94437 c 0,0.37886 -0.31043,0.68957 -0.689578,0.68957 H 4.261301 c -0.379142,0 -0.68957,-0.31045 -0.68957,-0.68957 v -4.9444 l 0.68957,0.68957 z M 3.652861,6.18279 C 3.769111,5.96486 3.998947,5.81564 4.261801,5.81564 h 8.274841 c 0.262834,0 0.492654,0.14935 0.608908,0.36724 l -0.608908,0.60892 -3.64983,3.64981 c -0.26773,0.26773 -0.707002,0.26816 -0.975172,10e-6 z m 8.195151,0.32243 H 4.950399 l 3.448794,3.4488 z"
         id="path296278"
         style="clip-rule:evenodd;fill:#008dd2;fill-opacity:1;fill-rule:evenodd;stroke-width:0.220663;image-rendering:optimizeQuality;shape-rendering:geometricPrecision;text-rendering:geometricPrecision"
         sodipodi:nodetypes="cccsscccccccccccssssccccssccscccccc" />
      <rect
         style="fill:none;fill-opacity:1;stroke:#008dd2;stroke-width:0.756953;stroke-miterlimit:4;stroke-dasharray:none;stroke-opacity:1"
         id="rect297841"
         width="13.310388"
         height="13.310388"
         x="1.7435579"
         y="2.6083329"
         ry="0.6770218"
         rx="0.58924204" />
    </g>
  </g>
</svg>
