<?xml version="1.0" ?><!DOCTYPE svg  PUBLIC '-//W3C//DTD SVG 1.1//EN'  'http://www.w3.org/Graphics/SVG/1.1/DTD/svg11.dtd'><svg height="100mm" style="shape-rendering:geometricPrecision; text-rendering:geometricPrecision; image-rendering:optimizeQuality; fill-rule:evenodd; clip-rule:evenodd" viewBox="0 0 100 100" width="100mm" xml:space="preserve" xmlns="http://www.w3.org/2000/svg" xmlns:xlink="http://www.w3.org/1999/xlink"><defs><style type="text/css">
   <![CDATA[
    .fil0 {fill:#008DD2}
   ]]>
  </style></defs><g id="Ebene_x0020_1"><path class="fil0" d="M15.625 12.5l68.7501 0c1.7188,0 3.125,1.4062 3.125,3.125l0 68.75c0,1.7188 -1.4062,3.125 -3.125,3.125l-68.7501 0c-1.7188,0 -3.125,-1.4062 -3.125,-3.125l0 -68.75c0,-1.7188 1.4062,-3.125 3.125,-3.125zm15.625 49.994c0.0017,0.0021 0.004,0.0044 0.0061,0.0061l1.8246 -0.0002c2.8197,-2.8197 5.6398,-5.64 8.4597,-8.4599 0.6102,-0.6101 1.5996,-0.6101 2.2098,0 0.6101,0.6102 0.6101,1.5996 0,2.2098l-6.2501 6.2501c-4.9824,0 19.3225,0.0002 25,0.0002l-6.2418 -6.242c-0.6198,-0.6048 -0.6187,-1.6074 -0.0083,-2.2179 0.6102,-0.6101 1.5996,-0.6101 2.2098,0l8.4597 8.4599 1.8242 0c0.0021,-0.0018 0.0045,-0.0042 0.0063,-0.0064l0 -19.2756 3.125 -3.125 0 22.407c0,1.7169 -1.4068,3.125 -3.125,3.125 -22.9167,0 -14.5833,0 -37.5,0 -1.7182,0 -3.125,-1.4069 -3.125,-3.125l0 -22.4071 3.125 3.125 0 19.276zm-2.7596 -26.4551c0.5268,-0.9877 1.5684,-1.6639 2.7596,-1.6639l37.5 0c1.1911,0 2.2326,0.6768 2.7595,1.6642l-2.7595 2.7595 -16.5403 16.5403c-1.2133,1.2133 -3.204,1.2153 -4.4193,0.0001l-19.3 -19.3002zm37.1389 1.4611l-31.2587 0 15.6293 15.6294 15.6294 -15.6294zm-49.9987 -21.875c-0.002,0.0016 -0.004,0.0036 -0.0056,0.0056l0 68.7389c0.0016,0.0019 0.0036,0.0039 0.0056,0.0055l68.739 0c0.0019,-0.0016 0.0039,-0.0036 0.0055,-0.0056l0 -68.7389c-0.0016,-0.0019 -0.0036,-0.0039 -0.0056,-0.0055l-68.7389 0z"/></g></svg>