<?xml version="1.0" encoding="UTF-8" standalone="no"?>
<!-- Created with Inkscape (http://www.inkscape.org/) -->

<svg
   width="96mm"
   height="96mm"
   viewBox="0 0 96 96"
   version="1.1"
   id="svg1"
   xml:space="preserve"
   inkscape:version="1.3.2 (091e20ef0f, 2023-11-25, custom)"
   sodipodi:docname="sing.svg"
   xmlns:inkscape="http://www.inkscape.org/namespaces/inkscape"
   xmlns:sodipodi="http://sodipodi.sourceforge.net/DTD/sodipodi-0.dtd"
   xmlns="http://www.w3.org/2000/svg"
   xmlns:svg="http://www.w3.org/2000/svg"><sodipodi:namedview
     id="namedview1"
     pagecolor="#ffffff"
     bordercolor="#666666"
     borderopacity="1.0"
     inkscape:showpageshadow="2"
     inkscape:pageopacity="0.0"
     inkscape:pagecheckerboard="0"
     inkscape:deskcolor="#d1d1d1"
     inkscape:document-units="mm"
     inkscape:zoom="0.34600432"
     inkscape:cx="221.09551"
     inkscape:cy="492.76841"
     inkscape:window-width="1896"
     inkscape:window-height="1001"
     inkscape:window-x="0"
     inkscape:window-y="0"
     inkscape:window-maximized="0"
     inkscape:current-layer="layer1" /><defs
     id="defs1" /><g
     inkscape:label="Capa 1"
     inkscape:groupmode="layer"
     id="layer1"><path
       style="fill:#c56bff;stroke-width:0.404493;fill-opacity:1"
       d="m 45.355946,91.884965 c -5.221282,-0.50628 -8.551976,-1.23978 -12.682126,-2.79288 -1.547308,-0.58185 -4.758972,-2.11795 -6.218261,-2.97413 -6.342858,-3.72139 -11.823995,-9.25917 -15.463661,-15.62345 -2.3472779,-4.10442 -4.2372849,-9.29042 -4.9534559,-13.59181 -1.622785,-9.74659 -0.197225,-19.09497 4.2134679,-27.63062 4.87799,-9.43998 13.624139,-16.958 23.817007,-20.4726498 3.131088,-1.07965 5.680794,-1.64462 9.521162,-2.10974 2.161453,-0.26177 6.553307,-0.25838 9.043372,0.007 13.301765,1.41764 24.882729,8.6403198 31.847513,19.8622998 2.82065,4.54476 5.001297,10.22448 5.818117,15.15386 0.48331,2.91676 0.59018,4.27454 0.58908,7.48426 -10e-4,3.32042 -0.12513,4.82005 -0.64329,7.78044 -1.981537,11.32089 -8.745103,21.53152 -18.507965,27.94057 -5.646626,3.70685 -11.560363,5.86782 -18.514834,6.76557 -1.249366,0.16128 -6.810971,0.3036 -7.866126,0.20128 z m 15.505104,-6.20121 c 4.573505,-1.55145 8.937127,-4.07853 12.718805,-7.36575 1.244168,-1.0815 3.376467,-3.22371 3.758012,-3.77549 l 0.235029,-0.33989 -0.617017,-0.12601 c -1.732589,-0.35384 -7.111259,-2.30472 -9.207442,-3.3396 -1.763919,-0.87084 -1.663567,-0.88308 -2.317284,0.28255 -0.833154,1.48558 -1.274293,1.5953 -2.935216,0.73002 -1.296525,-0.67544 -1.619987,-0.70148 -2.738651,-0.22045 l -0.788323,0.33898 -0.06064,1.7212 c -0.03331,0.94665 -0.116319,3.28639 -0.18437,5.19941 -0.108112,3.03908 -0.101796,3.70529 0.05004,5.27679 0.09558,0.98922 0.173773,1.86814 0.173773,1.95316 0,0.2511 0.383833,0.18391 1.913292,-0.33492 z M 15.068675,68.673125 c 0,-0.23391 1.763352,-5.54414 2.445323,-7.36394 0.467061,-1.24633 0.884914,-2.38645 0.928559,-2.5336 0.0921,-0.31053 1.576176,-3.64497 1.833863,-4.12035 0.627595,-1.1578 2.083063,-2.53517 3.800581,-3.59665 1.119168,-0.69169 1.195892,-0.77414 1.310364,-1.40818 0.101034,-0.55959 0.634609,-1.83972 0.962629,-2.30948 0.150277,-0.21521 0.86553,-1.07196 1.58946,-1.9039 1.339155,-1.53896 1.49175,-1.80355 1.738697,-3.0148 0.118618,-0.5818 -0.335619,-1.31923 -1.817124,-2.95001 -1.157785,-1.27445 -1.413939,-1.62508 -1.873515,-2.56459 -0.688569,-1.40761 -0.827739,-2.15628 -0.918487,-4.94109 -0.09698,-2.97581 0.112121,-4.42835 0.862755,-5.99324 0.58508,-1.21976 2.427554,-3.22901 3.582944,-3.90727 0.383674,-0.22524 1.203266,-0.80558 1.82132,-1.28967 1.440343,-1.12813 2.019011,-1.49332 2.943108,-1.8574 0.845723,-0.33319 1.123735,-0.53945 1.123735,-0.83369 0,-0.29499 0.290822,-0.81056 0.529182,-0.93813 0.300061,-0.16058 1.559212,-0.13191 2.345373,0.0534 0.647605,0.15267 0.697508,0.15 1.029342,-0.0551 0.229808,-0.14203 0.534278,-0.21553 0.892789,-0.21553 0.543315,0 0.544941,10e-4 1.204265,0.77591 0.859617,1.01026 1.29515,1.93953 1.759905,3.75502 0.570129,2.22711 0.822395,2.7045 2.07124,3.91961 1.014824,0.98741 1.060586,1.05253 1.394355,1.98412 0.189807,0.52976 0.411009,1.06472 0.491564,1.1888 0.08056,0.12409 0.643475,0.55085 1.250927,0.94838 1.972185,1.2906 2.16195,1.59446 1.63958,2.62531 -0.325597,0.64253 -0.330164,0.80194 -0.0419,1.46268 0.199366,0.45699 0.218934,0.65433 0.168036,1.69447 -0.03168,0.64748 -0.03117,1.31056 10e-4,1.47349 0.03234,0.16293 0.291638,0.51934 0.576147,0.79201 0.548157,0.52533 0.581603,0.60888 0.732614,1.8303 0.07253,0.58666 0.1808,0.90994 0.44002,1.31391 0.306319,0.47735 0.338483,0.60018 0.294887,1.12597 -0.09607,1.15856 -0.80247,1.63154 -2.632665,1.76276 -1.875276,0.13446 -2.59719,0.34627 -3.144697,0.92267 -0.44262,0.46598 -0.635462,1.04136 -0.638855,1.90615 -0.0044,1.13999 0.301666,1.78688 1.080238,2.28259 0.328023,0.20886 0.99487,0.68287 1.481887,1.05337 1.366539,1.03961 1.422426,1.05066 5.321807,1.053 l 3.317681,0.002 1.28427,0.60358 c 0.706344,0.33198 1.396212,0.63737 1.53304,0.67864 0.136828,0.0413 0.683704,0.4439 1.215279,0.89472 0.531579,0.45082 1.216331,1.01232 1.521674,1.24777 0.305343,0.23545 1.695467,1.55712 3.089156,2.93703 2.489328,2.46473 3.205481,3.05171 4.574446,3.74933 0.915753,0.46668 2.582056,1.08304 2.989307,1.10574 0.345842,0.0193 0.374136,-0.005 0.47224,-0.40757 0.07126,-0.29236 0.0613,-0.8862 -0.03143,-1.87289 -0.07468,-0.79464 -0.173157,-1.97456 -0.218832,-2.62204 -0.04567,-0.64748 -0.159173,-1.68293 -0.252218,-2.30098 -0.09304,-0.61806 -0.22228,-1.62941 -0.287193,-2.24747 -0.281,-2.67539 -0.742607,-4.77799 -1.536401,-6.99828 -0.666038,-1.86293 -0.920142,-2.10734 -3.483287,-3.35044 -1.532206,-0.7431 -1.765704,-0.82297 -3.231034,-1.10517 -0.86871,-0.16729 -1.673006,-0.35423 -1.787317,-0.41541 -0.32636,-0.17466 -1.157088,-1.14645 -1.515409,-1.77274 -0.359378,-0.62812 -1.080586,-1.34106 -1.356618,-1.34106 -0.09728,0 -0.335732,0.12116 -0.529881,0.26925 -0.520814,0.39724 -0.884194,0.43024 -1.77503,0.16117 -0.641935,-0.19389 -0.869885,-0.32709 -1.27438,-0.74466 -1.580744,-1.63188 -0.81266,-4.31612 1.24071,-4.33593 0.439146,-0.004 0.708388,0.079 1.345263,0.41609 l 0.796235,0.42139 1.765862,0.0692 c 0.971228,0.038 1.849555,0.0476 1.951839,0.0213 0.102279,-0.0263 0.356104,-0.28467 0.564049,-0.57411 0.504709,-0.70251 0.806675,-0.83741 1.29086,-0.57667 0.202199,0.1089 0.490369,0.3589 0.640379,0.55558 0.326385,0.42791 0.485217,0.44299 0.947978,0.09 0.192934,-0.14716 0.44926,-0.26756 0.569617,-0.26756 0.120358,0 0.548483,0.19264 0.951396,0.42809 0.622392,0.36371 0.824332,0.42809 1.342679,0.42809 0.776159,0 1.03724,0.10297 1.765776,0.69643 0.659026,0.53684 0.560245,0.50582 2.353333,0.73911 2.985036,0.38838 5.613999,1.12415 6.850077,1.91714 0.788429,0.50581 1.516639,1.43197 2.202408,2.80109 0.518379,1.03492 0.856923,2.01267 1.537871,4.44142 0.982492,3.50429 1.683961,5.41031 2.126221,5.77736 0.1443,0.11976 0.16275,-0.0307 0.16275,-1.32742 0,-1.51319 -0.31394,-5.08336 -0.59155,-6.7273 -0.581805,-3.44528 -1.76013,-6.90763 -3.577398,-10.51176 -1.210575,-2.40087 -2.028728,-3.73352 -3.483119,-5.67343 -5.768738,-7.6945 -13.880892,-12.80718 -23.333951,-14.70623 -2.510625,-0.50437 -3.868437,-0.65233 -6.632261,-0.72271 -6.394018,-0.16281 -12.264131,1.09829 -17.979721,3.86267 -4.772186,2.3081 -8.370577,5.07564 -12.326755,9.48058 -0.797402,0.88786 -2.095797,2.61039 -2.984792,3.95982 -3.582018,5.43724 -5.671508,11.6442 -6.2507909,18.56834 -0.27228,3.25461 0.08754,7.78733 0.9089089,11.44954 0.313882,1.3995 1.175517,4.14132 1.7735,5.64348 0.569826,1.43143 1.966003,4.32227 2.297246,4.75655 0.239893,0.31452 0.475846,0.46428 0.475846,0.30201 z m 68.866547,-4.84074 c 1.37257,-3.26412 2.355262,-7.26914 2.646132,-10.78442 l 0.12484,-1.50863 -0.54594,-0.95707 c -0.788606,-1.38247 -1.221212,-2.51084 -1.844041,-4.80987 -1.075298,-3.96923 -1.562656,-5.16461 -2.50888,-6.15378 -0.309691,-0.32374 -0.720822,-0.79475 -0.913628,-1.04668 -0.562722,-0.7353 -0.650015,-0.75665 -3.243412,-0.79346 -1.269192,-0.018 -2.340773,-2e-4 -2.381297,0.0396 -0.103149,0.10128 0.197083,1.08355 0.793973,2.59763 0.470078,1.19243 0.750356,2.11931 0.924012,3.05573 0.03824,0.20601 0.326558,1.16921 0.640779,2.14044 0.560154,1.73136 2.395419,7.92261 2.893421,9.76094 0.138806,0.51238 0.572846,1.90902 0.964536,3.10364 0.39169,1.19462 0.981521,3.09911 1.310744,4.23221 0.329218,1.1331 0.63152,2.06017 0.671784,2.06017 0.04022,0 0.250397,-0.42139 0.466977,-0.93644 z"
       id="path1" /></g></svg>
