<?xml version="1.0" encoding="UTF-8" standalone="no"?>
<!-- Generator: Adobe Illustrator 21.0.0, SVG Export Plug-In . SVG Version: 6.00 Build 0)  -->

<svg
   version="1.1"
   id="Слой_1"
   x="0px"
   y="0px"
   viewBox="0 0 300 300"
   enable-background="new 0 0 400 400"
   xml:space="preserve"
   inkscape:version="1.3.2 (091e20ef0f, 2023-11-25, custom)"
   sodipodi:docname="Telegram_logo.svg"
   width="300"
   height="300"
   xmlns:inkscape="http://www.inkscape.org/namespaces/inkscape"
   xmlns:sodipodi="http://sodipodi.sourceforge.net/DTD/sodipodi-0.dtd"
   xmlns="http://www.w3.org/2000/svg"
   xmlns:svg="http://www.w3.org/2000/svg"
   xmlns:rdf="http://www.w3.org/1999/02/22-rdf-syntax-ns#"
   xmlns:cc="http://creativecommons.org/ns#"
   xmlns:dc="http://purl.org/dc/elements/1.1/"><metadata
     id="metadata17"><rdf:RDF><cc:Work
         rdf:about=""><dc:format>image/svg+xml</dc:format><dc:type
           rdf:resource="http://purl.org/dc/dcmitype/StillImage" /></cc:Work></rdf:RDF></metadata><defs
     id="defs15"><pattern
       y="0"
       x="0"
       height="6"
       width="6"
       patternUnits="userSpaceOnUse"
       id="EMFhbasepattern" /><linearGradient
       id="linear-gradient"
       x1="120"
       y1="240"
       x2="120"
       gradientUnits="userSpaceOnUse"><stop
         offset="0"
         stop-color="#1d93d2"
         id="stop1" /><stop
         offset="1"
         stop-color="#38b0e3"
         id="stop2" /></linearGradient></defs><sodipodi:namedview
     pagecolor="#ffffff"
     bordercolor="#666666"
     borderopacity="1"
     objecttolerance="10"
     gridtolerance="10"
     guidetolerance="10"
     inkscape:pageopacity="0"
     inkscape:pageshadow="2"
     inkscape:window-width="1896"
     inkscape:window-height="1001"
     id="namedview13"
     showgrid="false"
     inkscape:zoom="0.2979429"
     inkscape:cx="-370.87643"
     inkscape:cy="88.943216"
     inkscape:window-x="0"
     inkscape:window-y="0"
     inkscape:window-maximized="0"
     inkscape:current-layer="Слой_1"
     fit-margin-top="0"
     fit-margin-left="0"
     fit-margin-right="0"
     fit-margin-bottom="0"
     inkscape:showpageshadow="2"
     inkscape:pagecheckerboard="0"
     inkscape:deskcolor="#d1d1d1" /><g
     id="g1"
     transform="translate(30.707879,37.027255)"><circle
       cx="120"
       cy="120"
       r="120"
       fill="url(#linear-gradient)"
       id="circle2"
       style="fill:url(#linear-gradient)" /><path
       d="m 81.229,128.772 14.237,39.406 c 0,0 1.78,3.687 3.686,3.687 1.906,0 30.255,-29.492 30.255,-29.492 L 160.932,81.483 81.737,118.6 Z"
       fill="#c8daea"
       id="path2" /><path
       d="m 100.106,138.878 -2.733,29.046 c 0,0 -1.144,8.9 7.754,0 8.898,-8.9 17.415,-15.763 17.415,-15.763"
       fill="#a9c6d8"
       id="path3" /><path
       d="M 81.486,130.178 52.2,120.636 c 0,0 -3.5,-1.42 -2.373,-4.64 0.232,-0.664 0.7,-1.229 2.1,-2.2 6.489,-4.523 120.106,-45.36 120.106,-45.36 0,0 3.208,-1.081 5.1,-0.362 a 2.766,2.766 0 0 1 1.885,2.055 9.357,9.357 0 0 1 0.254,2.585 c -0.009,0.752 -0.1,1.449 -0.169,2.542 -0.692,11.165 -21.4,94.493 -21.4,94.493 0,0 -1.239,4.876 -5.678,5.043 A 8.13,8.13 0 0 1 146.1,172.5 c -8.711,-7.493 -38.819,-27.727 -45.472,-32.177 a 1.27,1.27 0 0 1 -0.546,-0.9 c -0.093,-0.469 0.417,-1.05 0.417,-1.05 0,0 52.426,-46.6 53.821,-51.492 0.108,-0.379 -0.3,-0.566 -0.848,-0.4 -3.482,1.281 -63.844,39.4 -70.506,43.607 a 3.21,3.21 0 0 1 -1.48,0.09 z"
       fill="#ffffff"
       id="path4" /></g></svg>
